<svg version="1.1" id="Layer_1" xmlns="http://www.w3.org/2000/svg" xmlns:xlink="http://www.w3.org/1999/xlink" x="0px" y="0px"
	 width="100%" viewBox="0 0 115 100" enable-background="new 0 0 115 100" xml:space="preserve">
<path fill="#33241A" opacity="1.000000" stroke="none" 
	d="
M82.000000,101.000000 
	C54.666668,101.000000 27.833334,101.000000 1.000000,101.000000 
	C1.000000,67.666664 1.000000,34.333332 1.000000,1.000000 
	C39.333332,1.000000 77.666664,1.000000 116.000000,1.000000 
	C116.000000,34.333332 116.000000,67.666664 116.000000,101.000000 
	C104.833336,101.000000 93.666664,101.000000 82.000000,101.000000 
M83.585426,73.358513 
	C85.072632,71.261917 87.170341,69.364838 87.932922,67.031425 
	C90.250854,59.938839 92.059547,52.679501 94.053925,45.481598 
	C95.678291,39.619106 97.284508,33.751583 99.130272,27.045172 
	C72.712814,27.045172 47.040146,27.045172 21.485880,27.045172 
	C20.183981,22.362303 19.223606,18.311579 17.888617,14.388327 
	C17.324638,12.730912 15.980482,10.065055 14.976257,10.058352 
	C11.215959,10.033252 7.031067,8.513784 3.611888,11.038244 
	C3.615131,11.592299 3.618373,12.146352 3.621616,12.700406 
	C7.061704,12.913408 10.501791,13.126411 13.926791,13.338480 
	C14.327233,14.522250 14.689934,15.448215 14.955495,16.401247 
	C19.544096,32.868591 24.109409,49.342426 28.705315,65.807732 
	C30.677528,72.873398 32.586197,74.296875 40.022732,74.320808 
	C46.681164,74.342232 53.340702,74.397377 59.997959,74.306412 
	C67.636703,74.202042 75.273483,73.953156 83.585426,73.358513 
M39.061405,93.552422 
	C39.606945,91.773460 41.141693,89.118454 40.498535,88.392212 
	C39.016953,86.719254 36.432037,85.003571 34.377129,85.097939 
	C31.317495,85.238449 30.097794,88.167023 31.017500,91.042030 
	C32.191963,94.713394 34.901295,95.700867 39.061405,93.552422 
M80.359200,84.685768 
	C78.570641,86.048004 75.606712,87.203110 75.320000,88.830025 
	C75.026024,90.498146 77.008789,93.743668 78.626801,94.240173 
	C80.229424,94.731956 83.573746,93.185905 84.460922,91.591515 
	C86.154343,88.548203 84.603630,85.893547 80.359200,84.685768 
z"/>
<path fill="#F7F7F6" opacity="1.000000" stroke="none" 
	d="
M83.248268,73.562790 
	C75.273483,73.953156 67.636703,74.202042 59.997959,74.306412 
	C53.340702,74.397377 46.681164,74.342232 40.022732,74.320808 
	C32.586197,74.296875 30.677528,72.873398 28.705315,65.807732 
	C24.109409,49.342426 19.544096,32.868591 14.955495,16.401247 
	C14.689934,15.448215 14.327233,14.522250 13.926791,13.338480 
	C10.501791,13.126411 7.061704,12.913408 3.621616,12.700406 
	C3.618373,12.146352 3.615131,11.592299 3.611888,11.038244 
	C7.031067,8.513784 11.215959,10.033252 14.976257,10.058352 
	C15.980482,10.065055 17.324638,12.730912 17.888617,14.388327 
	C19.223606,18.311579 20.183981,22.362303 21.485880,27.045172 
	C47.040146,27.045172 72.712814,27.045172 99.130272,27.045172 
	C97.284508,33.751583 95.678291,39.619106 94.053925,45.481598 
	C92.059547,52.679501 90.250854,59.938839 87.932922,67.031425 
	C87.170341,69.364838 85.072632,71.261917 83.248268,73.562790 
M27.263977,48.077209 
	C28.838392,53.660114 30.592360,59.200443 31.929674,64.839577 
	C32.974915,69.247086 35.168480,71.171326 39.912437,71.072617 
	C52.379387,70.813202 64.857315,70.857414 77.326584,71.053345 
	C81.761986,71.123032 83.979073,69.392128 85.080566,65.143700 
	C87.743591,54.872360 90.725243,44.683872 93.535835,34.450279 
	C93.901016,33.120621 94.015060,31.721989 94.260002,30.268875 
	C70.175209,30.268875 46.602253,30.268875 22.466295,30.268875 
	C24.053480,36.140224 25.559586,41.711647 27.263977,48.077209 
z"/>
<path fill="#F5F4F4" opacity="1.000000" stroke="none" 
	d="
M38.757133,93.784470 
	C34.901295,95.700867 32.191963,94.713394 31.017500,91.042030 
	C30.097794,88.167023 31.317495,85.238449 34.377129,85.097939 
	C36.432037,85.003571 39.016953,86.719254 40.498535,88.392212 
	C41.141693,89.118454 39.606945,91.773460 38.757133,93.784470 
z"/>
<path fill="#F5F4F3" opacity="1.000000" stroke="none" 
	d="
M80.721054,84.741692 
	C84.603630,85.893547 86.154343,88.548203 84.460922,91.591515 
	C83.573746,93.185905 80.229424,94.731956 78.626801,94.240173 
	C77.008789,93.743668 75.026024,90.498146 75.320000,88.830025 
	C75.606712,87.203110 78.570641,86.048004 80.721054,84.741692 
z"/>
<path fill="#33241A" opacity="1.000000" stroke="none" 
	d="
M27.164833,47.680138 
	C25.559586,41.711647 24.053480,36.140224 22.466295,30.268875 
	C46.602253,30.268875 70.175209,30.268875 94.260002,30.268875 
	C94.015060,31.721989 93.901016,33.120621 93.535835,34.450279 
	C90.725243,44.683872 87.743591,54.872360 85.080566,65.143700 
	C83.979073,69.392128 81.761986,71.123032 77.326584,71.053345 
	C64.857315,70.857414 52.379387,70.813202 39.912437,71.072617 
	C35.168480,71.171326 32.974915,69.247086 31.929674,64.839577 
	C30.592360,59.200443 28.838392,53.660114 27.164833,47.680138 
z"/>
</svg>