<svg version="1.1" id="Layer_1" xmlns="http://www.w3.org/2000/svg" xmlns:xlink="http://www.w3.org/1999/xlink" x="0px" y="0px"
	 width="100%" viewBox="0 0 99 99" enable-background="new 0 0 99 99" xml:space="preserve">
<path fill="#FEFEFE" opacity="1.000000" stroke="none" 
	d="
M100.000000,3.000000 
	C100.000000,35.285000 100.000000,67.570000 100.000000,99.927498 
	C67.097801,99.927498 34.195400,99.927498 1.000000,99.927498 
	C1.000000,67.979698 1.000000,35.958508 1.468657,3.468415 
	C34.624878,2.999677 67.312439,2.999839 100.000000,3.000000 
M28.012157,88.990685 
	C28.012157,88.990685 28.053814,88.972969 28.158890,89.699471 
	C29.696323,90.765511 31.278118,92.797035 32.763432,92.728783 
	C38.869453,92.448227 44.946136,91.529152 51.698174,91.159950 
	C54.539341,95.182106 58.487156,95.837051 63.636814,94.962646 
	C64.085205,94.991180 64.533592,95.019722 65.214096,95.820351 
	C72.807884,98.439690 79.488663,94.716171 86.349861,92.593102 
	C87.303391,92.298050 87.747887,90.357925 88.428024,89.179352 
	C87.885178,89.407188 87.342331,89.635033 86.799484,89.862877 
	C82.496796,86.658882 78.194107,83.454887 73.953712,79.282417 
	C73.968086,77.460106 74.089233,75.631386 73.980148,73.816490 
	C73.001839,57.541279 71.983017,41.268501 70.985474,24.117071 
	C70.656715,19.838268 70.166954,15.563963 70.047249,11.279321 
	C69.940590,7.461208 68.152504,5.910563 64.460289,5.977584 
	C59.641911,6.065047 54.820786,6.001293 49.067894,6.000278 
	C43.368801,5.678694 37.669708,5.357110 31.209455,5.024957 
	C29.146736,6.030560 27.084019,7.036163 24.878860,8.852498 
	C24.015804,16.540125 23.152748,24.227753 22.127029,32.619682 
	C22.136484,33.099876 22.145941,33.580067 22.044212,34.838562 
	C21.994722,35.887096 21.945232,36.935635 21.373732,38.582146 
	C20.971966,50.405785 20.570200,62.229424 20.077387,74.894478 
	C20.504757,78.303642 17.984936,82.274155 22.105387,85.618881 
	C22.748957,85.976738 23.392527,86.334587 24.484180,86.897980 
	C24.484180,86.897980 24.962500,87.017319 25.123419,87.678879 
	C26.087078,88.102615 27.050737,88.526352 28.012157,88.990685 
z"/>
<path fill="#F9F6F3" opacity="1.000000" stroke="none" 
	d="
M100.000000,2.500001 
	C67.312439,2.999839 34.624878,2.999677 1.468657,2.999758 
	C0.387769,-0.085014 2.730453,1.037688 4.000098,1.034032 
	C21.499952,0.983630 39.000000,1.000000 56.500000,1.000000 
	C70.166664,1.000000 83.833412,0.982478 97.499809,1.042802 
	C98.334602,1.046487 99.166664,1.666668 100.000000,2.500001 
z"/>
<path fill="#E4E4E2" opacity="1.000000" stroke="none" 
	d="
M25.021297,8.041767 
	C27.084019,7.036163 29.146736,6.030560 31.598892,5.490414 
	C32.323669,11.627975 32.659008,17.300081 32.973366,23.349491 
	C33.195141,26.509920 33.437901,29.293045 33.683838,32.509541 
	C33.859741,34.959969 34.032475,36.977028 34.149052,39.393894 
	C34.161697,40.592495 34.230495,41.391285 34.244942,42.595657 
	C34.494480,45.973228 34.798370,48.945217 35.062477,52.349621 
	C35.083435,54.515236 35.144176,56.248436 35.151653,58.424614 
	C35.211014,61.231331 35.323643,63.595062 35.325981,66.389511 
	C35.280952,68.871483 35.346214,70.922745 35.314270,73.424393 
	C35.155407,77.552773 35.093754,81.230766 34.959785,85.281326 
	C33.303238,86.113632 31.719011,86.573364 30.079168,86.787338 
	C29.998857,86.375412 29.974161,86.209251 29.971859,85.622055 
	C29.999203,83.800728 30.004154,82.400444 30.294334,80.726868 
	C30.384573,75.923233 29.918406,71.384071 30.065321,66.864838 
	C30.237223,61.577000 27.460978,58.776810 22.994354,56.570076 
	C23.338789,53.430744 23.687744,50.721901 24.363663,47.981339 
	C25.785311,46.951241 26.879999,45.952866 28.134043,44.597260 
	C28.417152,42.650974 28.771959,41.039703 28.621706,39.477001 
	C28.155367,34.626877 27.497181,29.795200 26.922047,24.507576 
	C26.294203,18.719780 25.657751,13.380774 25.021297,8.041767 
z"/>
<path fill="#F1F1F0" opacity="1.000000" stroke="none" 
	d="
M32.994347,22.972187 
	C32.659008,17.300081 32.323669,11.627975 31.979473,5.495697 
	C37.669708,5.357110 43.368801,5.678694 49.572098,6.365757 
	C52.132069,9.791082 54.331852,12.766524 56.192257,15.940868 
	C57.404114,18.008614 58.122440,20.365606 58.615372,22.684708 
	C55.437775,22.839449 52.706669,22.902500 49.523453,22.853764 
	C44.713840,22.827641 40.356342,22.913305 35.628704,22.914328 
	C34.503826,22.877188 33.749088,22.924688 32.994347,22.972187 
z"/>
<path fill="#3C251E" opacity="1.000000" stroke="none" 
	d="
M73.891411,80.250893 
	C78.194107,83.454887 82.496796,86.658882 86.799484,89.862877 
	C87.342331,89.635033 87.885178,89.407188 88.428024,89.179352 
	C87.747887,90.357925 87.303391,92.298050 86.349861,92.593102 
	C79.488663,94.716171 72.807884,98.439690 65.306946,95.159485 
	C67.267776,93.616661 69.428368,92.983765 66.464775,90.571396 
	C65.595032,89.863419 65.752998,88.007362 65.144440,86.830276 
	C64.590797,85.759422 63.635994,84.895966 62.920555,83.719002 
	C62.983086,83.496910 63.087395,83.047417 63.417061,82.947327 
	C66.109276,81.285988 68.471825,79.724739 71.004593,78.431374 
	C72.080345,79.216469 72.985878,79.733681 73.891411,80.250893 
z"/>
<path fill="#EEEEED" opacity="1.000000" stroke="none" 
	d="
M59.061863,22.593021 
	C58.122440,20.365606 57.404114,18.008614 56.192257,15.940868 
	C54.331852,12.766524 52.132069,9.791082 50.038574,6.366920 
	C54.820786,6.001293 59.641911,6.065047 64.460289,5.977584 
	C68.152504,5.910563 69.940590,7.461208 70.047249,11.279321 
	C70.166954,15.563963 70.656715,19.838268 70.653778,24.585726 
	C69.280159,25.370535 68.238243,25.686689 67.073204,25.651564 
	C65.618347,19.852903 61.702278,23.560337 58.995537,22.934914 
	C59.014091,22.820290 59.061863,22.593021 59.061863,22.593021 
z"/>
<path fill="#C4C4C3" opacity="1.000000" stroke="none" 
	d="
M24.036699,48.013062 
	C23.687744,50.721901 23.338789,53.430744 22.986881,57.037594 
	C22.973555,63.302372 22.963181,68.669136 22.603779,74.029160 
	C21.559315,74.032631 20.863874,74.042847 20.168434,74.053062 
	C20.570200,62.229424 20.971966,50.405785 21.986797,38.234585 
	C24.582897,36.363903 24.890066,35.035431 22.155397,34.060261 
	C22.145941,33.580067 22.136484,33.099876 22.577389,32.271404 
	C23.679300,30.861139 24.368286,29.819935 24.972509,28.731668 
	C25.659025,27.495188 26.269760,26.216631 26.913437,24.956364 
	C27.497181,29.795200 28.155367,34.626877 28.621706,39.477001 
	C28.771959,41.039703 28.417152,42.650974 27.780891,44.601440 
	C26.026308,44.480949 24.784231,43.999039 22.628750,43.162739 
	C23.261951,45.344093 23.649326,46.678577 24.036699,48.013062 
z"/>
<path fill="#F1F1F0" opacity="1.000000" stroke="none" 
	d="
M67.196327,26.002846 
	C68.238243,25.686689 69.280159,25.370535 70.649094,25.024694 
	C71.983017,41.268501 73.001839,57.541279 73.980148,73.816490 
	C74.089233,75.631386 73.968086,77.460106 73.922562,79.766655 
	C72.985878,79.733681 72.080345,79.216469 71.011696,77.989258 
	C70.799118,75.514984 70.749649,73.750710 70.788147,71.543182 
	C70.847420,68.390472 70.818733,65.681000 70.842606,62.573151 
	C70.823112,61.110996 70.751045,60.047226 70.753860,58.565346 
	C70.249313,52.754997 69.669899,47.362755 69.122726,41.572876 
	C69.046143,40.119045 68.937317,39.062859 68.877213,37.628353 
	C67.998871,36.135094 67.071793,35.020145 66.241043,33.634315 
	C66.791046,32.574963 67.244713,31.786491 67.762177,30.641041 
	C67.616096,28.856989 67.406212,27.429916 67.196327,26.002846 
z"/>
<path fill="#432B22" opacity="1.000000" stroke="none" 
	d="
M62.969875,94.864464 
	C58.487156,95.837051 54.539341,95.182106 51.393654,90.700462 
	C51.077366,89.837608 51.065598,89.434250 51.416046,88.984222 
	C54.473633,87.944328 57.169014,86.951080 60.138641,85.990509 
	C61.265217,88.970276 62.117546,91.917366 62.969875,94.864464 
z"/>
<path fill="#BCBCBC" opacity="1.000000" stroke="none" 
	d="
M51.053833,89.030884 
	C51.065598,89.434250 51.077366,89.837608 51.061371,90.542953 
	C44.946136,91.529152 38.869453,92.448227 32.763432,92.728783 
	C31.278118,92.797035 29.696323,90.765511 28.450031,89.331276 
	C29.198141,88.921799 29.655109,88.880508 30.100727,88.872711 
	C30.089375,88.906189 30.045149,88.958221 30.169325,89.212891 
	C30.630329,89.625145 30.967155,89.782730 31.642815,90.097031 
	C38.339043,89.846123 44.696438,89.438507 51.053833,89.030884 
z"/>
<path fill="#B1B1AF" opacity="1.000000" stroke="none" 
	d="
M26.922047,24.507576 
	C26.269760,26.216631 25.659025,27.495188 24.972509,28.731668 
	C24.368286,29.819935 23.679300,30.861139 22.658718,31.919254 
	C23.152748,24.227753 24.015804,16.540125 24.950079,8.447132 
	C25.657751,13.380774 26.294203,18.719780 26.922047,24.507576 
z"/>
<path fill="#B1B1B1" opacity="1.000000" stroke="none" 
	d="
M30.112080,88.839226 
	C29.655109,88.880508 29.198141,88.921799 28.397491,88.968025 
	C28.053814,88.972969 28.012157,88.990685 27.865135,88.686249 
	C26.799576,87.926979 25.881037,87.472153 24.962500,87.017319 
	C24.962500,87.017319 24.484180,86.897980 24.193403,86.513458 
	C23.269117,85.752487 22.635607,85.376030 22.002096,84.999580 
	C17.984936,82.274155 20.504757,78.303642 20.122911,74.473770 
	C20.863874,74.042847 21.559315,74.032631 22.615803,74.354828 
	C22.990736,75.122322 23.004622,75.557404 23.003176,76.403442 
	C22.084541,82.322517 26.111723,84.111351 29.949465,86.043098 
	C29.974161,86.209251 29.998857,86.375412 29.916342,86.910263 
	C29.910114,87.799042 30.011097,88.319138 30.112080,88.839226 
z"/>
<path fill="#29120F" opacity="1.000000" stroke="none" 
	d="
M63.303345,94.913559 
	C62.117546,91.917366 61.265217,88.970276 60.231026,85.681396 
	C60.985447,84.873436 61.921738,84.407265 62.858025,83.941093 
	C63.635994,84.895966 64.590797,85.759422 65.144440,86.830276 
	C65.752998,88.007362 65.595032,89.863419 66.464775,90.571396 
	C69.428368,92.983765 67.267776,93.616661 65.190887,94.773438 
	C64.533592,95.019722 64.085205,94.991180 63.303345,94.913559 
z"/>
<path fill="#B1B1AF" opacity="1.000000" stroke="none" 
	d="
M22.099804,34.449409 
	C24.890066,35.035431 24.582897,36.363903 22.247803,37.935596 
	C21.945232,36.935635 21.994722,35.887096 22.099804,34.449409 
z"/>
<path fill="#BCBCBC" opacity="1.000000" stroke="none" 
	d="
M25.042959,87.348099 
	C25.881037,87.472153 26.799576,87.926979 27.866255,88.665955 
	C27.050737,88.526352 26.087078,88.102615 25.042959,87.348099 
z"/>
<path fill="#BCBCBC" opacity="1.000000" stroke="none" 
	d="
M22.053741,85.309235 
	C22.635607,85.376030 23.269117,85.752487 23.969360,86.410690 
	C23.392527,86.334587 22.748957,85.976738 22.053741,85.309235 
z"/>
<path fill="#B49E7A" opacity="1.000000" stroke="none" 
	d="
M70.678986,58.983456 
	C70.751045,60.047226 70.823112,61.110996 70.483719,62.639297 
	C65.047829,65.402756 60.023380,67.701683 54.638870,70.004623 
	C52.789516,70.403107 51.300224,70.797585 49.865570,71.177589 
	C50.308956,72.269478 50.657085,73.126793 50.750305,73.985580 
	C50.325466,73.985443 50.155529,73.983841 49.811226,73.722977 
	C49.091011,72.640305 48.545166,71.816887 47.955589,70.613029 
	C46.848827,69.161766 45.943161,67.457291 44.691414,67.146431 
	C41.692966,66.401817 38.531773,66.312569 35.436272,65.958794 
	C35.323643,63.595062 35.211014,61.231331 35.525444,58.430229 
	C36.955051,58.000187 37.957600,58.007523 38.984554,58.415440 
	C39.254116,59.390484 39.521858,60.473801 39.741085,60.464069 
	C43.891205,60.279850 48.036404,59.974762 52.170300,59.569229 
	C52.213951,59.564949 52.093685,57.889778 52.260864,56.886425 
	C52.733032,56.579403 52.909389,56.322338 53.284088,56.260040 
	C53.897392,59.310417 55.403877,60.463150 58.229328,60.010899 
	C60.806858,59.598335 63.407318,59.329044 66.390198,58.997227 
	C68.081474,58.993053 69.380226,58.988255 70.678986,58.983456 
z"/>
<path fill="#AB9776" opacity="1.000000" stroke="none" 
	d="
M34.299294,42.190071 
	C34.230495,41.391285 34.161697,40.592495 34.538956,39.394897 
	C37.131355,38.151608 39.327824,37.412472 41.405621,36.423901 
	C42.691875,35.811932 43.797771,34.820881 44.857239,34.281586 
	C43.543392,37.478523 44.866066,39.157913 49.219925,40.002365 
	C49.425598,40.001667 49.837292,40.003132 49.995697,40.296059 
	C50.972813,40.726727 51.791523,40.864464 52.610237,41.002205 
	C52.302727,39.682812 51.995213,38.363415 51.811058,36.676895 
	C52.002266,35.540131 52.070122,34.770489 52.577618,34.000519 
	C55.375988,33.986473 57.734715,33.972759 60.409828,33.975136 
	C61.149876,34.006939 61.573544,34.022652 61.903149,34.272797 
	C61.871513,35.276974 61.933941,36.046719 61.745281,36.952251 
	C61.268787,37.389557 61.043381,37.691078 60.504707,37.999954 
	C59.644810,39.228439 59.098183,40.449577 58.551559,41.670715 
	C58.879230,41.823563 59.206905,41.976410 59.534580,42.129257 
	C60.012730,41.458786 60.490883,40.788315 61.217812,40.093502 
	C61.466583,40.069160 61.959415,39.985252 62.284203,40.029015 
	C63.073170,40.716293 63.537350,41.359810 63.847054,42.313789 
	C62.796978,44.412750 61.901382,46.201244 60.747791,47.991703 
	C60.318207,48.005001 60.146614,48.016331 59.728859,48.032066 
	C59.482689,48.036469 58.990936,48.011070 58.909454,47.834625 
	C58.553440,47.773895 58.278912,47.889618 57.762283,48.260864 
	C54.694965,48.377224 51.869743,48.238056 48.874401,47.844414 
	C46.422344,46.657528 44.140411,45.725113 42.015446,44.474762 
	C41.806339,43.432152 41.477634,42.108025 41.067974,42.082485 
	C38.822708,41.942520 36.557594,42.120983 34.299294,42.190071 
M45.246197,44.174328 
	C45.412277,44.119282 45.578362,44.064240 45.744442,44.009193 
	C45.577366,43.955494 45.410290,43.901794 45.246197,44.174328 
M56.736889,39.183498 
	C56.623138,39.026649 56.509388,38.869801 56.395638,38.712948 
	C56.418537,38.931061 56.441437,39.149170 56.736889,39.183498 
M54.595440,45.519619 
	C54.595440,45.519619 54.476349,45.594616 54.595440,45.519619 
M56.594479,46.522011 
	C56.594479,46.522011 56.475601,46.596916 56.594479,46.522011 
z"/>
<path fill="#C3AD84" opacity="1.000000" stroke="none" 
	d="
M35.032104,84.908752 
	C35.093754,81.230766 35.155407,77.552773 35.732891,73.431778 
	C39.496605,72.992302 42.744480,72.995850 45.989582,73.255478 
	C45.989910,73.682274 45.993015,73.852974 45.850250,74.318558 
	C43.691315,76.870125 43.597816,78.522522 47.082947,79.392944 
	C47.868793,80.240616 48.837059,81.314369 49.444134,81.138847 
	C52.356239,80.296906 55.170662,79.117081 58.008747,78.404892 
	C57.330662,80.117134 56.663609,81.481766 55.562836,82.899185 
	C48.430111,83.604248 41.731106,84.256500 35.032104,84.908752 
z"/>
<path fill="#EBEAE6" opacity="1.000000" stroke="none" 
	d="
M34.959785,85.281326 
	C41.731106,84.256500 48.430111,83.604248 55.948189,82.943008 
	C58.873974,82.971817 60.980686,83.009621 63.087395,83.047417 
	C63.087395,83.047417 62.983086,83.496910 62.920555,83.719002 
	C61.921738,84.407265 60.985447,84.873436 59.956776,85.648720 
	C57.169014,86.951080 54.473633,87.944328 51.416046,88.984222 
	C44.696438,89.438507 38.339043,89.846123 31.485710,89.862846 
	C30.674898,89.300705 30.360023,89.129463 30.045149,88.958221 
	C30.045149,88.958221 30.089375,88.906189 30.100727,88.872711 
	C30.011097,88.319138 29.910114,87.799042 29.971956,87.156021 
	C31.719011,86.573364 33.303238,86.113632 34.959785,85.281326 
z"/>
<path fill="#DADAD8" opacity="1.000000" stroke="none" 
	d="
M23.018509,75.992493 
	C23.004622,75.557404 22.990736,75.122322 22.964828,74.361572 
	C22.963181,68.669136 22.973555,63.302372 22.991402,57.468086 
	C27.460978,58.776810 30.237223,61.577000 30.065321,66.864838 
	C29.918406,71.384071 30.384573,75.923233 29.946770,80.691696 
	C27.215485,79.284042 25.116997,77.638268 23.018509,75.992493 
z"/>
<path fill="#AA9572" opacity="1.000000" stroke="none" 
	d="
M44.984631,34.000000 
	C43.797771,34.820881 42.691875,35.811932 41.405621,36.423901 
	C39.327824,37.412472 37.131355,38.151608 34.595108,38.995087 
	C34.032475,36.977028 33.859741,34.959969 34.072399,32.482780 
	C37.984547,32.129723 38.415371,25.661247 43.016975,28.242874 
	C44.000465,28.974104 44.961430,29.465832 46.248028,29.972429 
	C47.941517,29.705420 49.309364,29.423538 50.779678,29.425442 
	C51.630482,32.829220 52.901054,30.633017 54.371861,30.030647 
	C56.516037,31.349140 58.304741,32.654095 60.093445,33.959045 
	C57.734715,33.972759 55.375988,33.986473 52.420921,33.770447 
	C51.197876,33.690609 50.571167,33.840511 49.531509,33.994404 
	C47.740582,33.998928 46.362606,33.999462 44.984631,34.000000 
z"/>
<path fill="#AC9773" opacity="1.000000" stroke="none" 
	d="
M53.000858,56.007030 
	C52.909389,56.322338 52.733032,56.579403 51.996216,57.033970 
	C47.333813,57.531429 43.146980,57.773144 38.960152,58.014854 
	C37.957600,58.007523 36.955051,58.000187 35.578712,57.987244 
	C35.144176,56.248436 35.083435,54.515236 35.343292,52.242203 
	C36.428841,51.054756 37.193794,50.407139 37.980545,50.183743 
	C38.830536,51.398239 39.813633,52.977837 40.461758,52.850636 
	C44.654423,52.027794 48.366291,53.158028 52.219467,55.106663 
	C52.715034,55.416988 52.902058,55.680721 53.000858,56.007030 
z"/>
<path fill="#BDA67E" opacity="1.000000" stroke="none" 
	d="
M45.992359,72.999390 
	C42.744480,72.995850 39.496605,72.992302 35.830101,72.981384 
	C35.346214,70.922745 35.280952,68.871483 35.325977,66.389511 
	C38.531773,66.312569 41.692966,66.401817 44.691414,67.146431 
	C45.943161,67.457291 46.848827,69.161766 47.657455,70.633667 
	C46.935612,71.355347 46.468155,71.675941 46.000332,72.245537 
	C45.999966,72.494537 45.999329,72.992546 45.999908,72.996140 
	C46.000484,72.999733 45.992359,72.999390 45.992359,72.999390 
z"/>
<path fill="#4D4946" opacity="1.000000" stroke="none" 
	d="
M37.958744,49.759525 
	C37.193794,50.407139 36.428841,51.054756 35.383076,51.809784 
	C34.798370,48.945217 34.494480,45.973228 34.244942,42.595657 
	C36.557594,42.120983 38.822708,41.942520 41.067974,42.082485 
	C41.477634,42.108025 41.806339,43.432152 41.746544,44.662491 
	C40.463516,46.413368 39.606361,47.658581 38.569660,48.997543 
	C38.166248,49.262337 38.022457,49.485081 37.958744,49.759525 
z"/>
<path fill="#A08A66" opacity="1.000000" stroke="none" 
	d="
M42.994450,28.003372 
	C38.415371,25.661247 37.984547,32.129723 34.069225,32.049408 
	C33.437901,29.293045 33.195141,26.509920 32.973366,23.349491 
	C33.749088,22.924688 34.503826,22.877188 35.776409,23.251194 
	C37.591282,24.452068 38.906036,25.203781 40.179562,26.019829 
	C41.145092,26.638515 42.058083,27.339184 42.994450,28.003372 
z"/>
<path fill="#CFCFCE" opacity="1.000000" stroke="none" 
	d="
M23.003178,76.403442 
	C25.116997,77.638268 27.215485,79.284042 29.661541,80.964996 
	C30.004154,82.400444 29.999203,83.800728 29.971859,85.622055 
	C26.111723,84.111351 22.084541,82.322517 23.003178,76.403442 
z"/>
<path fill="#DADAD8" opacity="1.000000" stroke="none" 
	d="
M24.363663,47.981339 
	C23.649326,46.678577 23.261951,45.344093 22.628750,43.162739 
	C24.784231,43.999039 26.026308,44.480949 27.621536,44.958675 
	C26.879999,45.952866 25.785311,46.951241 24.363663,47.981339 
z"/>
<path fill="#7D6D4F" opacity="1.000000" stroke="none" 
	d="
M43.016975,28.242874 
	C42.058083,27.339184 41.145092,26.638515 40.179562,26.019829 
	C38.906036,25.203781 37.591282,24.452068 36.146545,23.335835 
	C40.356342,22.913305 44.713840,22.827641 49.529480,23.231976 
	C50.265800,25.182543 50.543980,26.643110 50.517563,28.107441 
	C48.782776,28.726658 47.352581,29.342108 45.922390,29.957558 
	C44.961430,29.465832 44.000465,28.974104 43.016975,28.242874 
z"/>
<path fill="#3E3734" opacity="1.000000" stroke="none" 
	d="
M50.822159,28.103676 
	C50.543980,26.643110 50.265800,25.182543 49.981590,23.343765 
	C52.706669,22.902500 55.437775,22.839449 58.615372,22.684708 
	C59.061863,22.593021 59.014091,22.820290 59.000698,23.180719 
	C58.987305,23.541149 58.993389,24.032831 58.645592,24.046211 
	C56.870655,26.045433 55.443523,28.031271 54.016388,30.017109 
	C52.901054,30.633017 51.630482,32.829220 50.864697,29.171993 
	C50.838886,28.457733 50.830521,28.280704 50.822159,28.103676 
z"/>
<path fill="#C8B187" opacity="1.000000" stroke="none" 
	d="
M63.417061,82.947327 
	C60.980686,83.009621 58.873974,82.971817 56.381912,82.890205 
	C56.663609,81.481766 57.330662,80.117134 57.977180,78.042252 
	C56.516289,76.636719 54.832401,75.094139 53.686531,75.423477 
	C51.337879,76.098518 49.277805,77.777611 47.098919,79.043320 
	C43.597816,78.522522 43.691315,76.870125 46.249588,74.314590 
	C47.858402,74.004570 48.922001,73.993408 49.985596,73.982239 
	C50.155529,73.983841 50.325466,73.985443 51.157017,73.980621 
	C54.875000,73.316788 57.931370,72.659378 61.391808,72.001526 
	C64.763985,71.996185 67.732086,71.991310 70.700188,71.986427 
	C70.749649,73.750710 70.799118,75.514984 70.841476,77.721375 
	C68.471825,79.724739 66.109276,81.285988 63.417061,82.947327 
z"/>
<path fill="#453F3E" opacity="1.000000" stroke="none" 
	d="
M58.993389,24.032833 
	C58.993389,24.032831 58.987305,23.541149 58.982143,23.295345 
	C61.702278,23.560337 65.618347,19.852903 67.073204,25.651562 
	C67.406212,27.429916 67.616096,28.856989 67.510201,30.644798 
	C66.858459,31.011621 66.522499,31.017714 66.005463,30.722324 
	C63.547390,28.291506 61.270390,26.162169 58.993389,24.032833 
z"/>
<path fill="#C1AB84" opacity="1.000000" stroke="none" 
	d="
M70.788147,71.543182 
	C67.732086,71.991310 64.763985,71.996185 60.983093,71.998985 
	C58.446510,71.331474 56.722721,70.666039 54.998932,70.000610 
	C60.023380,67.701683 65.047829,65.402756 70.431160,63.037682 
	C70.818733,65.681000 70.847420,68.390472 70.788147,71.543182 
z"/>
<path fill="#AB9776" opacity="1.000000" stroke="none" 
	d="
M70.753860,58.565346 
	C69.380226,58.988255 68.081474,58.993053 66.535126,58.673065 
	C66.468124,56.102909 66.680145,53.859417 66.813850,51.611263 
	C66.867432,50.710182 66.344780,49.451954 66.775810,48.950058 
	C69.089851,46.255573 67.563469,44.162159 66.390732,41.999443 
	C67.547577,41.989632 68.319031,41.980072 69.090485,41.970512 
	C69.669899,47.362755 70.249313,52.754997 70.753860,58.565346 
z"/>
<path fill="#AA9572" opacity="1.000000" stroke="none" 
	d="
M69.122726,41.572876 
	C68.319031,41.980072 67.547577,41.989632 66.056686,41.997986 
	C64.892014,41.998959 64.446770,42.001141 64.001534,42.003323 
	C63.537350,41.359810 63.073170,40.716293 62.384705,39.734779 
	C62.105736,38.536674 62.051048,37.676567 61.996368,36.816463 
	C61.933941,36.046719 61.871513,35.276974 62.182243,34.329643 
	C63.083000,34.355473 63.610607,34.558887 64.142754,34.812157 
	C64.147293,34.862015 64.061501,34.913631 64.176285,35.248089 
	C65.803551,36.390587 67.316017,37.198627 68.828491,38.006668 
	C68.937317,39.062859 69.046143,40.119045 69.122726,41.572876 
z"/>
<path fill="#AB9776" opacity="1.000000" stroke="none" 
	d="
M68.877213,37.628353 
	C67.316017,37.198627 65.803551,36.390587 64.476059,35.224056 
	C65.155594,34.545444 65.650162,34.225323 66.144722,33.905201 
	C67.071793,35.020145 67.998871,36.135094 68.877213,37.628353 
z"/>
<path fill="#443E3C" opacity="1.000000" stroke="none" 
	d="
M66.241043,33.634315 
	C65.650162,34.225323 65.155594,34.545444 64.361267,34.889599 
	C64.061501,34.913631 64.147293,34.862015 64.111008,34.452705 
	C64.778664,33.036865 65.482605,32.030338 66.186539,31.023808 
	C66.522499,31.017714 66.858459,31.011621 67.446396,31.001776 
	C67.244713,31.786491 66.791046,32.574963 66.241043,33.634315 
z"/>
<path fill="#B1B1B1" opacity="1.000000" stroke="none" 
	d="
M30.169325,89.212891 
	C30.360023,89.129463 30.674898,89.300705 31.146879,89.706131 
	C30.967155,89.782730 30.630329,89.625145 30.169325,89.212891 
z"/>
<path fill="#A08D6D" opacity="1.000000" stroke="none" 
	d="
M63.847054,42.313789 
	C64.446770,42.001141 64.892014,41.998959 65.671295,41.998238 
	C67.563469,44.162159 69.089851,46.255573 66.775810,48.950058 
	C66.344780,49.451954 66.867432,50.710182 66.813850,51.611263 
	C66.680145,53.859417 66.468124,56.102909 66.142609,58.672440 
	C63.407318,59.329044 60.806858,59.598335 58.229328,60.010899 
	C55.403877,60.463150 53.897392,59.310417 53.284088,56.260040 
	C52.902058,55.680721 52.715034,55.416988 52.424828,54.849270 
	C54.275383,53.977394 56.140900,53.472080 58.335243,52.966583 
	C59.102505,52.964470 59.540939,52.962540 60.195778,53.229675 
	C61.496956,53.498745 62.581726,53.498745 64.052544,53.498745 
	C62.764904,51.170494 61.885345,49.580112 61.005783,47.989738 
	C61.901382,46.201244 62.796978,44.412750 63.847054,42.313789 
z"/>
<path fill="#9B8769" opacity="1.000000" stroke="none" 
	d="
M38.984554,58.415436 
	C43.146980,57.773144 47.333813,57.531429 51.785294,57.142170 
	C52.093685,57.889778 52.213951,59.564949 52.170300,59.569229 
	C48.036404,59.974762 43.891205,60.279850 39.741085,60.464069 
	C39.521858,60.473801 39.254116,59.390484 38.984554,58.415436 
z"/>
<path fill="#AC9878" opacity="1.000000" stroke="none" 
	d="
M54.638870,70.004623 
	C56.722721,70.666039 58.446510,71.331474 60.579018,71.999435 
	C57.931370,72.659378 54.875000,73.316788 51.411926,73.979141 
	C50.657085,73.126793 50.308956,72.269478 49.865570,71.177589 
	C51.300224,70.797585 52.789516,70.403107 54.638870,70.004623 
z"/>
<path fill="#AC9878" opacity="1.000000" stroke="none" 
	d="
M49.811226,73.722984 
	C48.922001,73.993408 47.858402,74.004570 46.395466,74.019707 
	C45.993015,73.852974 45.989910,73.682274 45.989582,73.255478 
	C45.992359,72.999390 46.000484,72.999733 46.166691,72.907486 
	C46.222164,72.542336 46.111431,72.269440 46.000698,71.996536 
	C46.468155,71.675941 46.935612,71.355347 47.701195,71.014114 
	C48.545166,71.816887 49.091011,72.640305 49.811226,73.722984 
z"/>
<path fill="#70654D" opacity="1.000000" stroke="none" 
	d="
M66.005470,30.722326 
	C65.482605,32.030338 64.778664,33.036865 64.106468,34.402847 
	C63.610607,34.558887 63.083000,34.355473 62.276299,34.095211 
	C61.573544,34.022652 61.149876,34.006939 60.409828,33.975136 
	C58.304741,32.654095 56.516037,31.349140 54.371861,30.030647 
	C55.443523,28.031271 56.870655,26.045433 58.645592,24.046213 
	C61.270390,26.162169 63.547390,28.291506 66.005470,30.722326 
z"/>
<path fill="#88785A" opacity="1.000000" stroke="none" 
	d="
M59.979374,52.960609 
	C59.540939,52.962540 59.102505,52.964470 58.068443,52.689095 
	C55.572800,51.983173 53.643692,51.652473 51.780766,51.099014 
	C49.830864,50.519722 47.944546,49.726398 46.363457,49.022789 
	C47.479160,48.712257 48.261841,48.405571 49.044521,48.098888 
	C51.869743,48.238056 54.694965,48.377224 58.008904,48.261814 
	C58.497620,48.007236 58.990936,48.011070 58.990936,48.011070 
	C58.990936,48.011070 59.482689,48.036469 59.737862,48.442875 
	C59.988483,50.219723 59.983929,51.590168 59.979374,52.960609 
z"/>
<path fill="#AA9572" opacity="1.000000" stroke="none" 
	d="
M48.874401,47.844414 
	C48.261841,48.405571 47.479160,48.712257 46.006504,49.048615 
	C43.094116,50.273563 40.855740,52.069611 38.749207,48.903793 
	C39.606361,47.658581 40.463516,46.413368 41.589573,44.980431 
	C44.140411,45.725113 46.422344,46.657528 48.874401,47.844414 
z"/>
<path fill="#9F8C6E" opacity="1.000000" stroke="none" 
	d="
M44.857239,34.281586 
	C46.362606,33.999462 47.740582,33.998928 49.442856,34.293610 
	C49.547131,35.368294 49.327103,36.147762 48.857292,37.091953 
	C48.743095,38.172138 48.878677,39.087605 49.014256,40.003067 
	C44.866066,39.157913 43.543392,37.478523 44.857239,34.281586 
z"/>
<path fill="#9B8867" opacity="1.000000" stroke="none" 
	d="
M60.195778,53.229675 
	C59.983929,51.590168 59.988483,50.219723 59.984032,48.438473 
	C60.146614,48.016331 60.318207,48.005001 60.747787,47.991699 
	C61.885345,49.580112 62.764904,51.170494 64.052544,53.498745 
	C62.581726,53.498745 61.496956,53.498745 60.195778,53.229675 
z"/>
<path fill="#534A44" opacity="1.000000" stroke="none" 
	d="
M51.687698,37.044022 
	C51.995213,38.363415 52.302727,39.682812 52.610237,41.002205 
	C51.791523,40.864464 50.972813,40.726727 50.150963,40.000793 
	C50.445068,38.602962 50.742306,37.793331 51.202797,36.985729 
	C51.366051,36.987762 51.687698,37.044022 51.687698,37.044022 
z"/>
<path fill="#AA9572" opacity="1.000000" stroke="none" 
	d="
M60.969036,40.117844 
	C60.490883,40.788315 60.012730,41.458786 59.534580,42.129257 
	C59.206905,41.976410 58.879230,41.823563 58.551559,41.670715 
	C59.098183,40.449577 59.644810,39.228439 60.559437,38.351086 
	C60.941303,39.169193 60.955170,39.643517 60.969036,40.117844 
z"/>
<path fill="#463F3C" opacity="1.000000" stroke="none" 
	d="
M51.811054,36.676895 
	C51.687698,37.044022 51.366051,36.987762 50.879982,36.987976 
	C49.964966,36.967869 49.536022,36.947552 49.107075,36.927231 
	C49.327103,36.147762 49.547131,35.368294 49.855812,34.289619 
	C50.571167,33.840511 51.197876,33.690609 51.981277,33.770779 
	C52.070122,34.770489 52.002266,35.540131 51.811054,36.676895 
z"/>
<path fill="#AA9572" opacity="1.000000" stroke="none" 
	d="
M48.857292,37.091953 
	C49.536022,36.947552 49.964966,36.967869 50.716728,36.985939 
	C50.742306,37.793331 50.445068,38.602962 49.992561,39.707863 
	C49.837292,40.003132 49.425598,40.001667 49.219925,40.002365 
	C48.878677,39.087605 48.743095,38.172138 48.857292,37.091953 
z"/>
<path fill="#4D4542" opacity="1.000000" stroke="none" 
	d="
M61.217812,40.093502 
	C60.955170,39.643517 60.941303,39.169193 60.872704,38.343735 
	C61.043381,37.691078 61.268787,37.389557 61.745277,36.952251 
	C62.051048,37.676567 62.105736,38.536674 62.059921,39.691017 
	C61.959415,39.985252 61.466583,40.069160 61.217812,40.093502 
z"/>
<path fill="#AA9572" opacity="1.000000" stroke="none" 
	d="
M45.244705,44.011215 
	C45.410290,43.901794 45.577366,43.955494 45.744442,44.009193 
	C45.578362,44.064240 45.412277,44.119282 45.244705,44.011215 
z"/>
<path fill="#AA9572" opacity="1.000000" stroke="none" 
	d="
M56.600613,39.275391 
	C56.441437,39.149170 56.418537,38.931061 56.395638,38.712948 
	C56.509388,38.869801 56.623138,39.026649 56.600613,39.275391 
z"/>
<path fill="#9B8867" opacity="1.000000" stroke="none" 
	d="
M54.535896,45.557117 
	C54.476349,45.594616 54.595440,45.519619 54.535896,45.557117 
z"/>
<path fill="#9B8867" opacity="1.000000" stroke="none" 
	d="
M56.535042,46.559464 
	C56.475601,46.596916 56.594479,46.522011 56.535042,46.559464 
z"/>
<path fill="#9B8867" opacity="1.000000" stroke="none" 
	d="
M58.909454,47.834625 
	C58.990936,48.011070 58.497620,48.007236 58.250999,48.006287 
	C58.278912,47.889618 58.553440,47.773895 58.909454,47.834625 
z"/>
<path fill="#9F8B6E" opacity="1.000000" stroke="none" 
	d="
M47.082947,79.392944 
	C49.277805,77.777611 51.337879,76.098518 53.686531,75.423477 
	C54.832401,75.094139 56.516289,76.636719 57.988213,77.694626 
	C55.170662,79.117081 52.356239,80.296906 49.444134,81.138847 
	C48.837059,81.314369 47.868793,80.240616 47.082947,79.392944 
z"/>
<path fill="#A48F6C" opacity="1.000000" stroke="none" 
	d="
M50.517563,28.107441 
	C50.830521,28.280704 50.838886,28.457733 50.762238,28.888210 
	C49.309364,29.423538 47.941517,29.705420 46.248028,29.972427 
	C47.352581,29.342108 48.782776,28.726658 50.517563,28.107441 
z"/>
<path fill="#9B8867" opacity="1.000000" stroke="none" 
	d="
M38.569656,48.997543 
	C40.855740,52.069611 43.094116,50.273563 45.673485,49.052460 
	C47.944546,49.726398 49.830864,50.519722 51.780766,51.099014 
	C53.643692,51.652473 55.572800,51.983173 57.739616,52.689278 
	C56.140900,53.472080 54.275383,53.977394 52.204502,54.740105 
	C48.366291,53.158028 44.654423,52.027794 40.461758,52.850636 
	C39.813633,52.977837 38.830536,51.398239 37.980545,50.183743 
	C38.022457,49.485081 38.166248,49.262337 38.569656,48.997543 
z"/>
<path fill="#C3AD84" opacity="1.000000" stroke="none" 
	d="
M46.000332,72.245537 
	C46.111431,72.269440 46.222164,72.542336 46.166115,72.903893 
	C45.999329,72.992546 45.999966,72.494537 46.000332,72.245537 
z"/>
</svg>