<svg version="1.1" id="Layer_1" xmlns="http://www.w3.org/2000/svg" xmlns:xlink="http://www.w3.org/1999/xlink" x="0px" y="0px"
	 width="100%" viewBox="0 0 307 307" enable-background="new 0 0 307 307" xml:space="preserve">
<path fill="#312218" opacity="1.000000" stroke="none" 
	d="
M308.000000,111.000000 
	C308.000000,177.000000 308.000000,242.500000 308.000000,308.000000 
	C205.666672,308.000000 103.333336,308.000000 1.000000,308.000000 
	C1.000000,205.666672 1.000000,103.333336 1.000000,1.000000 
	C103.333336,1.000000 205.666672,1.000000 308.000000,1.000000 
	C308.000000,37.500000 308.000000,74.000000 308.000000,111.000000 
M6.724117,172.787888 
	C6.886842,174.444824 6.932345,176.123077 7.229480,177.755554 
	C14.190386,215.998962 32.322819,247.745010 63.228146,271.525909 
	C96.020203,296.758606 133.377151,307.091370 174.391922,301.674591 
	C213.689774,296.484619 246.287537,278.175323 271.173615,247.205582 
	C298.482208,213.221146 308.817993,174.063797 302.566345,131.145798 
	C297.044556,93.238594 278.897461,61.756611 249.018982,37.590050 
	C215.904175,10.805826 177.750854,-0.272554 135.636429,5.338009 
	C89.098755,11.537844 52.821663,35.045933 27.814196,74.928436 
	C9.219690,104.583389 2.404324,137.122635 6.724117,172.787888 
z"/>
<path fill="#635851" opacity="1.000000" stroke="none" 
	d="
M6.613323,172.350296 
	C2.404324,137.122635 9.219690,104.583389 27.814196,74.928436 
	C52.821663,35.045933 89.098755,11.537844 135.636429,5.338009 
	C177.750854,-0.272554 215.904175,10.805826 249.018982,37.590050 
	C278.897461,61.756611 297.044556,93.238594 302.566345,131.145798 
	C308.817993,174.063797 298.482208,213.221146 271.173615,247.205582 
	C246.287537,278.175323 213.689774,296.484619 174.391922,301.674591 
	C133.377151,307.091370 96.020203,296.758606 63.228146,271.525909 
	C32.322819,247.745010 14.190386,215.998962 7.229480,177.755554 
	C6.932345,176.123077 6.886842,174.444824 6.613323,172.350296 
M28.505148,98.051315 
	C14.464344,130.967529 12.723695,164.617477 24.460403,198.333435 
	C37.974991,237.156708 64.205360,264.800507 102.077660,280.919098 
	C126.578506,291.346741 152.259476,293.779083 178.406982,289.295868 
	C210.754684,283.749542 237.782867,268.391479 259.190186,243.435303 
	C285.678711,212.555588 296.510223,176.585815 291.634918,136.453430 
	C287.378876,101.418739 271.582520,71.901489 244.480682,48.915363 
	C209.799515,19.500908 169.666138,9.463194 125.586021,18.935562 
	C80.559311,28.611338 48.481792,55.678505 28.505148,98.051315 
z"/>
<path fill="#312218" opacity="1.000000" stroke="none" 
	d="
M28.665928,97.709488 
	C48.481792,55.678505 80.559311,28.611338 125.586021,18.935562 
	C169.666138,9.463194 209.799515,19.500908 244.480682,48.915363 
	C271.582520,71.901489 287.378876,101.418739 291.634918,136.453430 
	C296.510223,176.585815 285.678711,212.555588 259.190186,243.435303 
	C237.782867,268.391479 210.754684,283.749542 178.406982,289.295868 
	C152.259476,293.779083 126.578506,291.346741 102.077660,280.919098 
	C64.205360,264.800507 37.974991,237.156708 24.460403,198.333435 
	C12.723695,164.617477 14.464344,130.967529 28.665928,97.709488 
M149.524506,211.007629 
	C154.128494,211.007629 158.732483,211.007629 163.848160,211.007629 
	C163.848160,191.565887 163.848160,172.683228 163.848160,153.396317 
	C169.310196,153.396317 174.249603,153.396317 179.562347,153.396317 
	C180.240570,146.706314 180.880753,140.391739 181.573059,133.562988 
	C175.360489,133.562988 169.783859,133.562988 163.845566,133.562988 
	C163.845566,131.137329 163.845886,129.164764 163.845520,127.192215 
	C163.843414,115.940262 163.843353,115.940216 174.851379,115.938591 
	C176.945312,115.938278 179.039230,115.938538 181.156601,115.938538 
	C181.156601,108.951752 181.156601,102.570984 181.156601,96.097198 
	C174.475479,96.097198 168.137100,95.770897 161.843613,96.163727 
	C147.855484,97.036827 140.453644,104.897003 140.012756,118.976463 
	C139.862762,123.766647 139.988983,128.565475 139.988983,133.816803 
	C135.709061,133.816803 131.955521,133.816803 128.222412,133.816803 
	C128.222412,140.551682 128.222412,146.819824 128.222412,153.647125 
	C132.163788,153.647125 135.893387,153.647125 140.091431,153.647125 
	C140.091431,173.078888 140.091431,191.953415 140.091431,211.007629 
	C143.237747,211.007629 145.886902,211.007629 149.524506,211.007629 
z"/>
<path fill="#FCFBFB" opacity="1.000000" stroke="none" 
	d="
M149.030273,211.007629 
	C145.886902,211.007629 143.237747,211.007629 140.091431,211.007629 
	C140.091431,191.953415 140.091431,173.078888 140.091431,153.647125 
	C135.893387,153.647125 132.163788,153.647125 128.222412,153.647125 
	C128.222412,146.819824 128.222412,140.551682 128.222412,133.816803 
	C131.955521,133.816803 135.709061,133.816803 139.988983,133.816803 
	C139.988983,128.565475 139.862762,123.766647 140.012756,118.976463 
	C140.453644,104.897003 147.855484,97.036827 161.843613,96.163727 
	C168.137100,95.770897 174.475479,96.097198 181.156601,96.097198 
	C181.156601,102.570984 181.156601,108.951752 181.156601,115.938538 
	C179.039230,115.938538 176.945312,115.938278 174.851379,115.938591 
	C163.843353,115.940216 163.843414,115.940262 163.845520,127.192215 
	C163.845886,129.164764 163.845566,131.137329 163.845566,133.562988 
	C169.783859,133.562988 175.360489,133.562988 181.573059,133.562988 
	C180.880753,140.391739 180.240570,146.706314 179.562347,153.396317 
	C174.249603,153.396317 169.310196,153.396317 163.848160,153.396317 
	C163.848160,172.683228 163.848160,191.565887 163.848160,211.007629 
	C158.732483,211.007629 154.128494,211.007629 149.030273,211.007629 
z"/>
</svg>