<svg version="1.1" id="Layer_1" xmlns="http://www.w3.org/2000/svg" xmlns:xlink="http://www.w3.org/1999/xlink" x="0px" y="0px"
	 width="100%" viewBox="0 0 307 307" enable-background="new 0 0 307 307" xml:space="preserve">
<path fill="#312218" opacity="1.000000" stroke="none" 
	d="
M308.000000,110.000000 
	C308.000000,176.333328 308.000000,242.166672 308.000000,308.000000 
	C205.666672,308.000000 103.333336,308.000000 1.000000,308.000000 
	C1.000000,205.666672 1.000000,103.333336 1.000000,1.000000 
	C103.333336,1.000000 205.666672,1.000000 308.000000,1.000000 
	C308.000000,37.166668 308.000000,73.333336 308.000000,110.000000 
M5.914285,144.273926 
	C6.242700,154.529419 5.745015,164.891022 7.046209,175.021561 
	C12.000476,213.593384 29.980322,245.488235 59.922752,269.891815 
	C94.289490,297.901276 133.997345,308.776520 178.073502,302.026947 
	C214.078857,296.513245 244.313599,279.783905 267.816589,252.216782 
	C297.878540,216.956512 309.708740,175.825241 301.976807,129.937744 
	C293.914154,82.087433 267.922943,46.326252 225.536346,22.978609 
	C199.098358,8.415873 170.554260,2.760640 140.285583,5.833059 
	C121.486938,7.741213 103.626312,12.633790 86.928268,21.245560 
	C64.367287,32.881054 45.569607,49.050175 31.331692,70.220383 
	C16.449461,92.348610 7.626376,116.620087 5.914285,144.273926 
z"/>
<path fill="#635851" opacity="1.000000" stroke="none" 
	d="
M5.928752,143.812134 
	C7.626376,116.620087 16.449461,92.348610 31.331692,70.220383 
	C45.569607,49.050175 64.367287,32.881054 86.928268,21.245560 
	C103.626312,12.633790 121.486938,7.741213 140.285583,5.833059 
	C170.554260,2.760640 199.098358,8.415873 225.536346,22.978609 
	C267.922943,46.326252 293.914154,82.087433 301.976807,129.937744 
	C309.708740,175.825241 297.878540,216.956512 267.816589,252.216782 
	C244.313599,279.783905 214.078857,296.513245 178.073502,302.026947 
	C133.997345,308.776520 94.289490,297.901276 59.922752,269.891815 
	C29.980322,245.488235 12.000476,213.593384 7.046209,175.021561 
	C5.745015,164.891022 6.242700,154.529419 5.928752,143.812134 
M62.009819,256.503754 
	C64.408440,258.559082 66.730591,260.712341 69.217293,262.654907 
	C100.988380,287.474030 137.130249,296.763489 176.649094,290.603882 
	C215.541550,284.541931 246.504684,264.548706 268.801086,232.059845 
	C288.302582,203.643555 296.065674,171.806915 291.675964,137.696045 
	C286.861115,100.281609 269.643280,69.307480 239.621277,45.957161 
	C205.590744,19.489138 167.129288,11.256495 125.270714,19.911659 
	C94.060204,26.365105 68.274590,42.511745 48.107208,67.319473 
	C22.421217,98.915588 12.726216,135.176086 18.468323,175.193527 
	C23.041882,207.067230 37.759720,234.071991 62.009819,256.503754 
z"/>
<path fill="#312218" opacity="1.000000" stroke="none" 
	d="
M61.756516,256.254333 
	C37.759720,234.071991 23.041882,207.067230 18.468323,175.193527 
	C12.726216,135.176086 22.421217,98.915588 48.107208,67.319473 
	C68.274590,42.511745 94.060204,26.365105 125.270714,19.911659 
	C167.129288,11.256495 205.590744,19.489138 239.621277,45.957161 
	C269.643280,69.307480 286.861115,100.281609 291.675964,137.696045 
	C296.065674,171.806915 288.302582,203.643555 268.801086,232.059845 
	C246.504684,264.548706 215.541550,284.541931 176.649094,290.603882 
	C137.130249,296.763489 100.988380,287.474030 69.217293,262.654907 
	C66.730591,260.712341 64.408440,258.559082 61.756516,256.254333 
M91.731514,213.750595 
	C98.173187,221.115295 106.354271,225.816223 116.005623,226.065369 
	C138.628815,226.649368 161.351807,227.652435 183.885696,226.191864 
	C205.947174,224.761902 218.024155,211.667023 219.078430,189.486206 
	C220.088943,168.226181 219.891556,146.845764 218.955200,125.574150 
	C218.046265,104.925697 203.421204,90.781479 182.822281,90.144142 
	C161.530731,89.485374 140.184982,89.464432 118.895775,90.163948 
	C98.701630,90.827484 84.134659,104.716255 83.067970,124.804451 
	C81.965294,145.570465 82.291405,166.426056 82.447891,187.239044 
	C82.518967,196.692673 85.023346,205.680252 91.731514,213.750595 
z"/>
<path fill="#F9F9F9" opacity="1.000000" stroke="none" 
	d="
M91.493210,213.486710 
	C85.023346,205.680252 82.518967,196.692673 82.447891,187.239044 
	C82.291405,166.426056 81.965294,145.570465 83.067970,124.804451 
	C84.134659,104.716255 98.701630,90.827484 118.895775,90.163948 
	C140.184982,89.464432 161.530731,89.485374 182.822281,90.144142 
	C203.421204,90.781479 218.046265,104.925697 218.955200,125.574150 
	C219.891556,146.845764 220.088943,168.226181 219.078430,189.486206 
	C218.024155,211.667023 205.947174,224.761902 183.885696,226.191864 
	C161.351807,227.652435 138.628815,226.649368 116.005623,226.065369 
	C106.354271,225.816223 98.173187,221.115295 91.493210,213.486710 
M207.474960,156.500214 
	C207.318268,147.342896 207.325150,138.179199 206.968414,129.029678 
	C206.358994,113.398712 198.558365,104.653389 183.179489,102.693741 
	C177.096466,101.918610 170.886887,101.869240 164.738831,101.924385 
	C149.095184,102.064728 133.395599,101.717987 117.828629,102.954277 
	C103.679909,104.077927 95.532379,113.178329 95.172813,127.463326 
	C94.653618,148.090286 94.654091,168.749786 95.172768,189.376801 
	C95.539032,203.942841 104.880035,213.515472 119.475708,213.962875 
	C140.259277,214.599976 161.093033,214.671280 181.873276,213.996414 
	C197.600250,213.485672 206.349411,203.775070 206.950333,187.966690 
	C207.336060,177.819229 207.314148,167.656281 207.474960,156.500214 
z"/>
<path fill="#33241A" opacity="1.000000" stroke="none" 
	d="
M207.474960,157.000244 
	C207.314148,167.656281 207.336060,177.819229 206.950333,187.966690 
	C206.349411,203.775070 197.600250,213.485672 181.873276,213.996414 
	C161.093033,214.671280 140.259277,214.599976 119.475708,213.962875 
	C104.880035,213.515472 95.539032,203.942841 95.172768,189.376801 
	C94.654091,168.749786 94.653618,148.090286 95.172813,127.463326 
	C95.532379,113.178329 103.679909,104.077927 117.828629,102.954277 
	C133.395599,101.717987 149.095184,102.064728 164.738831,101.924385 
	C170.886887,101.869240 177.096466,101.918610 183.179489,102.693741 
	C198.558365,104.653389 206.358994,113.398712 206.968414,129.029678 
	C207.325150,138.179199 207.318268,147.342896 207.474960,157.000244 
M167.452164,126.976578 
	C166.248184,126.416397 165.070557,125.788742 163.836182,125.306351 
	C149.559265,119.727081 133.646622,123.897675 123.680466,135.808411 
	C114.018547,147.355545 112.919830,164.529205 121.030624,177.226990 
	C129.332413,190.223785 144.767517,196.454361 159.548920,192.775375 
	C172.915268,189.448578 184.034760,177.745193 185.846985,164.442245 
	C188.045013,148.307434 182.042923,135.859070 167.452164,126.976578 
M191.314880,114.021904 
	C185.505905,112.425697 181.161331,114.440231 179.863678,119.331734 
	C178.617874,124.027771 181.249969,128.610596 186.018768,129.576370 
	C190.036377,130.390030 193.302200,128.866135 195.105896,125.171432 
	C197.247971,120.783569 195.902771,117.141373 191.314880,114.021904 
z"/>
<path fill="#FBFAFA" opacity="1.000000" stroke="none" 
	d="
M167.781738,127.145050 
	C182.042923,135.859070 188.045013,148.307434 185.846985,164.442245 
	C184.034760,177.745193 172.915268,189.448578 159.548920,192.775375 
	C144.767517,196.454361 129.332413,190.223785 121.030624,177.226990 
	C112.919830,164.529205 114.018547,147.355545 123.680466,135.808411 
	C133.646622,123.897675 149.559265,119.727081 163.836182,125.306351 
	C165.070557,125.788742 166.248184,126.416397 167.781738,127.145050 
M162.082382,138.176086 
	C161.489288,137.874695 160.914154,137.529434 160.300430,137.278473 
	C150.684311,133.346451 140.721863,135.527206 133.852554,143.055069 
	C127.445312,150.076553 126.124428,160.710876 130.622467,169.060074 
	C135.374390,177.880539 144.758972,182.473236 154.962357,180.971725 
	C163.743286,179.679535 171.010605,172.737473 173.312317,163.443039 
	C175.670624,153.920105 171.893204,145.052505 162.082382,138.176086 
z"/>
<path fill="#F7F7F6" opacity="1.000000" stroke="none" 
	d="
M191.661560,114.187653 
	C195.902771,117.141373 197.247971,120.783569 195.105896,125.171432 
	C193.302200,128.866135 190.036377,130.390030 186.018768,129.576370 
	C181.249969,128.610596 178.617874,124.027771 179.863678,119.331734 
	C181.161331,114.440231 185.505905,112.425697 191.661560,114.187653 
z"/>
<path fill="#33241A" opacity="1.000000" stroke="none" 
	d="
M162.401367,138.377090 
	C171.893204,145.052505 175.670624,153.920105 173.312317,163.443039 
	C171.010605,172.737473 163.743286,179.679535 154.962357,180.971725 
	C144.758972,182.473236 135.374390,177.880539 130.622467,169.060074 
	C126.124428,160.710876 127.445312,150.076553 133.852554,143.055069 
	C140.721863,135.527206 150.684311,133.346451 160.300430,137.278473 
	C160.914154,137.529434 161.489288,137.874695 162.401367,138.377090 
z"/>
</svg>