<svg version="1.1" id="Layer_1" xmlns="http://www.w3.org/2000/svg" xmlns:xlink="http://www.w3.org/1999/xlink" x="0px" y="0px"
	 width="100%" viewBox="0 0 74 74" enable-background="new 0 0 74 74" xml:space="preserve">
<path fill="#32241A" opacity="1.000000" stroke="none" 
	d="
M47.000000,75.000000 
	C31.333334,75.000000 16.166666,75.000000 1.000000,75.000000 
	C1.000000,50.333332 1.000000,25.666666 1.000000,1.000000 
	C25.666666,1.000000 50.333332,1.000000 75.000000,1.000000 
	C75.000000,25.666666 75.000000,50.333332 75.000000,75.000000 
	C65.833336,75.000000 56.666668,75.000000 47.000000,75.000000 
M60.060867,48.282700 
	C57.571880,47.459393 55.100933,45.996880 52.590714,45.926048 
	C42.944225,45.653862 33.278736,45.610722 23.632591,45.896305 
	C14.064182,46.179588 6.876530,55.920181 9.133112,65.216011 
	C9.418757,66.392708 10.626143,67.345634 11.406486,68.402229 
	C12.589432,65.708527 12.477663,63.443737 12.610211,61.193340 
	C13.021788,54.205643 17.268641,49.474583 24.170759,49.235569 
	C33.480030,48.913208 42.819065,48.932690 52.127609,49.280128 
	C58.874691,49.531963 63.045288,54.174320 63.394493,60.902119 
	C63.519062,63.302113 63.414448,65.713997 63.414448,68.681007 
	C69.434334,64.097603 67.775993,55.094978 60.060867,48.282700 
M52.783192,15.850380 
	C52.220509,14.649322 51.775387,13.374440 51.075352,12.259632 
	C47.526554,6.608131 42.269341,4.183590 35.785862,5.131417 
	C29.497526,6.050716 25.286472,9.867805 23.346384,15.956153 
	C21.509132,21.721779 23.578773,28.223473 28.329063,32.125095 
	C33.050846,36.003304 39.815552,36.734177 45.159767,33.943527 
	C51.228214,30.774702 53.839455,24.973610 52.783192,15.850380 
z"/>
<path fill="#EFEEED" opacity="1.000000" stroke="none" 
	d="
M60.354645,48.507141 
	C67.775993,55.094978 69.434334,64.097603 63.414448,68.681007 
	C63.414448,65.713997 63.519062,63.302113 63.394493,60.902119 
	C63.045288,54.174320 58.874691,49.531963 52.127609,49.280128 
	C42.819065,48.932690 33.480030,48.913208 24.170759,49.235569 
	C17.268641,49.474583 13.021788,54.205643 12.610211,61.193340 
	C12.477663,63.443737 12.589432,65.708527 11.406486,68.402229 
	C10.626143,67.345634 9.418757,66.392708 9.133112,65.216011 
	C6.876530,55.920181 14.064182,46.179588 23.632591,45.896305 
	C33.278736,45.610722 42.944225,45.653862 52.590714,45.926048 
	C55.100933,45.996880 57.571880,47.459393 60.354645,48.507141 
z"/>
<path fill="#EFEEED" opacity="1.000000" stroke="none" 
	d="
M52.874428,16.226215 
	C53.839455,24.973610 51.228214,30.774702 45.159767,33.943527 
	C39.815552,36.734177 33.050846,36.003304 28.329063,32.125095 
	C23.578773,28.223473 21.509132,21.721779 23.346384,15.956153 
	C25.286472,9.867805 29.497526,6.050716 35.785862,5.131417 
	C42.269341,4.183590 47.526554,6.608131 51.075352,12.259632 
	C51.775387,13.374440 52.220509,14.649322 52.874428,16.226215 
M26.553764,17.328478 
	C25.137327,27.458000 33.324692,34.773987 42.194695,31.304754 
	C47.288647,29.312407 50.385345,24.416368 49.869553,19.170408 
	C49.328354,13.666093 45.267841,9.491155 39.586388,8.597476 
	C34.009155,7.720191 29.668612,10.443004 26.553764,17.328478 
z"/>
<path fill="#35261C" opacity="1.000000" stroke="none" 
	d="
M26.693821,16.962788 
	C29.668612,10.443004 34.009155,7.720191 39.586388,8.597476 
	C45.267841,9.491155 49.328354,13.666093 49.869553,19.170408 
	C50.385345,24.416368 47.288647,29.312407 42.194695,31.304754 
	C33.324692,34.773987 25.137327,27.458000 26.693821,16.962788 
z"/>
</svg>