<svg version="1.1" id="Layer_1" xmlns="http://www.w3.org/2000/svg" xmlns:xlink="http://www.w3.org/1999/xlink" x="0px" y="0px"
	 width="100%" viewBox="0 0 307 307" enable-background="new 0 0 307 307" xml:space="preserve">
<path fill="#312218" opacity="1.000000" stroke="none" 
	d="
M1.000000,113.000000 
	C1.000000,75.333351 1.000000,38.166702 1.000000,1.000040 
	C103.333260,1.000027 205.666519,1.000027 307.999817,1.000013 
	C307.999878,103.333221 307.999878,205.666443 307.999939,307.999756 
	C205.666824,307.999817 103.333664,307.999817 1.000246,307.999908 
	C1.000000,243.166672 1.000000,178.333328 1.000000,113.000000 
M20.151690,222.334305 
	C31.508297,244.928802 47.287441,263.777008 68.236679,278.013123 
	C100.841537,300.169891 136.624069,308.927521 175.869019,303.182312 
	C204.881317,298.935150 230.676453,287.403198 252.250717,267.851959 
	C290.408051,233.272583 307.338409,190.012466 302.074493,138.463425 
	C298.890717,107.285286 286.745728,79.744003 265.837372,56.757381 
	C229.674927,17.000444 184.435562,0.362750 130.984543,7.983540 
	C93.054855,13.391374 61.830742,31.609013 37.847645,61.191158 
	C13.181599,91.615685 2.072256,126.766571 4.846234,166.155151 
	C6.222840,185.702026 11.176293,204.146484 20.151690,222.334305 
z"/>
<path fill="#635851" opacity="1.000000" stroke="none" 
	d="
M19.993502,221.996445 
	C11.176293,204.146484 6.222840,185.702026 4.846234,166.155151 
	C2.072256,126.766571 13.181599,91.615685 37.847645,61.191158 
	C61.830742,31.609013 93.054855,13.391374 130.984543,7.983540 
	C184.435562,0.362750 229.674927,17.000444 265.837372,56.757381 
	C286.745728,79.744003 298.890717,107.285286 302.074493,138.463425 
	C307.338409,190.012466 290.408051,233.272583 252.250717,267.851959 
	C230.676453,287.403198 204.881317,298.935150 175.869019,303.182312 
	C136.624069,308.927521 100.841537,300.169891 68.236679,278.013123 
	C47.287441,263.777008 31.508297,244.928802 19.993502,221.996445 
M69.113365,46.580868 
	C67.050117,48.263062 64.889793,49.840172 62.938030,51.643055 
	C27.986763,83.928207 11.894208,123.585663 16.961687,171.166718 
	C20.990005,208.990585 38.550304,239.733200 68.032372,263.405151 
	C99.471443,288.648407 135.804001,297.576691 175.338013,291.670258 
	C208.438095,286.725128 236.243378,271.077026 258.095673,245.482544 
	C284.484558,214.574600 295.506104,178.597794 290.593445,138.474976 
	C286.380096,104.063522 270.954437,74.948647 244.594086,51.869137 
	C222.322800,32.369774 196.488098,20.830179 167.176117,18.225349 
	C131.313049,15.038352 98.554863,24.163570 69.113365,46.580868 
z"/>
<path fill="#312218" opacity="1.000000" stroke="none" 
	d="
M69.407745,46.375256 
	C98.554863,24.163570 131.313049,15.038352 167.176117,18.225349 
	C196.488098,20.830179 222.322800,32.369774 244.594086,51.869137 
	C270.954437,74.948647 286.380096,104.063522 290.593445,138.474976 
	C295.506104,178.597794 284.484558,214.574600 258.095673,245.482544 
	C236.243378,271.077026 208.438095,286.725128 175.338013,291.670258 
	C135.804001,297.576691 99.471443,288.648407 68.032372,263.405151 
	C38.550304,239.733200 20.990005,208.990585 16.961687,171.166718 
	C11.894208,123.585663 27.986763,83.928207 62.938030,51.643055 
	C64.889793,49.840172 67.050117,48.263062 69.407745,46.375256 
M150.634201,194.854767 
	C150.149857,195.527756 149.690598,196.220551 149.177322,196.870697 
	C143.831848,203.641708 134.842453,206.210403 126.765495,203.285461 
	C118.677803,200.356613 113.499763,192.694321 113.720749,183.982208 
	C113.940033,175.336960 119.491699,167.860382 127.986130,165.637436 
	C131.437012,164.734360 135.187729,164.977036 139.064087,164.678177 
	C139.064087,157.112930 139.064087,149.360840 139.064087,141.692612 
	C138.583740,141.460892 138.307968,141.230301 138.010880,141.198425 
	C114.184822,138.642624 91.741989,156.996078 90.041885,180.412491 
	C88.209763,205.647141 106.779099,227.232269 131.107391,228.147324 
	C156.414383,229.099197 176.895859,209.956711 176.995178,185.188004 
	C177.054642,170.358841 176.998337,155.529236 177.020676,140.699860 
	C177.022491,139.494019 177.230240,138.288452 177.374863,136.732010 
	C187.452438,143.405289 197.930817,146.965652 209.681122,146.959549 
	C209.681122,138.914719 209.681122,131.190857 209.681122,123.515190 
	C189.433838,120.856461 180.033356,111.421005 176.691055,90.711647 
	C168.962006,90.711647 161.245407,90.711647 153.286514,90.711647 
	C153.286514,92.956398 153.286530,94.778839 153.286530,96.601273 
	C153.286499,125.260345 153.371994,153.919968 153.185471,182.577835 
	C153.160278,186.448288 151.768158,190.309830 150.634201,194.854767 
z"/>
<path fill="#FCFCFC" opacity="1.000000" stroke="none" 
	d="
M150.821594,194.515137 
	C151.768158,190.309830 153.160278,186.448288 153.185471,182.577835 
	C153.371994,153.919968 153.286499,125.260345 153.286530,96.601273 
	C153.286530,94.778839 153.286514,92.956398 153.286514,90.711647 
	C161.245407,90.711647 168.962006,90.711647 176.691055,90.711647 
	C180.033356,111.421005 189.433838,120.856461 209.681122,123.515190 
	C209.681122,131.190857 209.681122,138.914719 209.681122,146.959549 
	C197.930817,146.965652 187.452438,143.405289 177.374863,136.732010 
	C177.230240,138.288452 177.022491,139.494019 177.020676,140.699860 
	C176.998337,155.529236 177.054642,170.358841 176.995178,185.188004 
	C176.895859,209.956711 156.414383,229.099197 131.107391,228.147324 
	C106.779099,227.232269 88.209763,205.647141 90.041885,180.412491 
	C91.741989,156.996078 114.184822,138.642624 138.010880,141.198425 
	C138.307968,141.230301 138.583740,141.460892 139.064087,141.692612 
	C139.064087,149.360840 139.064087,157.112930 139.064087,164.678177 
	C135.187729,164.977036 131.437012,164.734360 127.986130,165.637436 
	C119.491699,167.860382 113.940033,175.336960 113.720749,183.982208 
	C113.499763,192.694321 118.677803,200.356613 126.765495,203.285461 
	C134.842453,206.210403 143.831848,203.641708 149.177322,196.870697 
	C149.690598,196.220551 150.149857,195.527756 150.821594,194.515137 
z"/>
</svg>